# xmcd CD database file
#
# Track frame offsets:
#	150
#	18244
#	37052
#	55523
#	75694
#	91479
#	109194
#	128322
#	145562
#	163802
#
# Disc length: 2419 seconds
#
# Revision: 1
# Processed by: cddbd v1.5.1PL2 Copyright (c) Steve Scherf et al.
# Submitted via: jetAudio 5
#
DISCID=7309710a
DTITLE=ศร สินชัย (2006) - #5 หัวหน้าผู้บ่าวแนว
DYEAR=1900
DGENRE=
TTITLE0=หัวหน้าผู้บ่าวแนว
TTITLE1=หมู่เขายังเดาออก
TTITLE2=อีแต๊กเที่ยวสุดท้าย
TTITLE3=นอนอายเสียงอึ่ง
TTITLE4=เอิ้นหมู่คืนนา
TTITLE5=ใจลอยในวงเหล้า
TTITLE6=หอบใจมาโสเจ็บ
TTITLE7=แม่ฮ้างซาวปลาย
TTITLE8=เดือดฮ้อนฮอดไก่
TTITLE9=คึดฮอดสาวผ้าป่า
EXTD=
EXTT0=
EXTT1=
EXTT2=
EXTT3=
EXTT4=
EXTT5=
EXTT6=
EXTT7=
EXTT8=
EXTT9=
PLAYORDER=
